<svg width="64" height="64" viewBox="0 0 64 64" fill="none" xmlns="http://www.w3.org/2000/svg">
<path d="M32 58.6666C17.2724 58.6666 5.33333 46.7274 5.33333 31.9999C5.33333 17.2723 17.2724 5.33325 32 5.33325C46.7275 5.33325 58.6667 17.2723 58.6667 31.9999C58.6667 46.7274 46.7275 58.6666 32 58.6666ZM32 53.3332C43.7821 53.3332 53.3333 43.7821 53.3333 31.9999C53.3333 20.2178 43.7821 10.6666 32 10.6666C20.2179 10.6666 10.6667 20.2178 10.6667 31.9999C10.6667 43.7821 20.2179 53.3332 32 53.3332ZM34.6667 27.9999V39.9999H37.3333V45.3332H26.6667V39.9999H29.3333V33.3333H26.6667V27.9999H34.6667ZM36 21.3333C36 23.5424 34.2091 25.3333 32 25.3333C29.7909 25.3333 28 23.5424 28 21.3333C28 19.1241 29.7909 17.3333 32 17.3333C34.2091 17.3333 36 19.1241 36 21.3333Z" fill="#E8E9F0"/>
</svg>
