<svg width="20" height="20" viewBox="0 0 20 20" fill="none" xmlns="http://www.w3.org/2000/svg">
<path d="M15.0258 13.8473L18.5948 17.4162L17.4163 18.5947L13.8473 15.0258C12.5641 16.0525 10.9367 16.6666 9.16667 16.6666C5.02667 16.6666 1.66667 13.3066 1.66667 9.16663C1.66667 5.02663 5.02667 1.66663 9.16667 1.66663C13.3067 1.66663 16.6667 5.02663 16.6667 9.16663C16.6667 10.9366 16.0525 12.564 15.0258 13.8473ZM13.3539 13.229C14.3729 12.1788 15 10.7463 15 9.16663C15 5.94371 12.3896 3.33329 9.16667 3.33329C5.94376 3.33329 3.33334 5.94371 3.33334 9.16663C3.33334 12.3895 5.94376 15 9.16667 15C10.7463 15 12.1788 14.3729 13.229 13.3539L13.3539 13.229Z" fill="#868EA3"/>
</svg>
